<svg width="1000" height="495" xmlns="http://www.w3.org/2000/svg">

 <g>
  <title>background</title>
  <rect fill="none" id="canvas_background" height="497" width="1002" y="-1" x="-1"/>
 </g>
 <g>
  <title>Layer 1</title>
  <path id="svg_1" fill="#ededed" d="m152.235,307.857687c0,43.32 47.12,81.7 119.62,105.39l0,-210.779c-72.5,23.689 -119.62,62.069 -119.62,105.389z"/>
  <path id="svg_2" fill="#ededed" d="m409.275,282.867687c-14.05,0 -25.49,11.431 -25.49,25.49c0,14.06 11.44,25.49 25.49,25.49c14.06,0 25.49,-11.431 25.49,-25.49c0,-14.059 -11.43,-25.49 -25.49,-25.49z"/>
  <path id="svg_3" fill="#ededed" d="m626.865,282.867687c-14.06,0 -25.49,11.431 -25.49,25.49c0,14.06 11.43,25.49 25.49,25.49c14.05,0 25.49,-11.431 25.49,-25.49c0,-14.059 -11.44,-25.49 -25.49,-25.49z"/>
  <path id="svg_4" fill="#ededed" d="m518.075,282.867687c-14.06,0 -25.5,11.431 -25.5,25.49c0,14.06 11.44,25.49 25.5,25.49c14.05,0 25.49,-11.431 25.49,-25.49c0,-14.059 -11.44,-25.49 -25.49,-25.49z"/>
  <path id="svg_5" fill="#ededed" d="m829.375,273.657687l-84.62,0c-21.69,-30.939 -71.53,-57.31 -134.68,-74.56l-0.001,0c0.36,-1.477 0.585,-3.01 0.655,-4.586l0.471,-10.656c0.577,-13.058 -9.54,-24.111 -22.599,-24.688l-163.507,-7.229c-13.058,-0.577 -24.111,9.54 -24.689,22.598l-0.194,4.401c-19.859,1.29 -39.058,3.5 -57.396,6.52c0.68,2.641 1.04,5.4 1.04,8.24l0,228.32c0,2.84 -0.36,5.6 -1.04,8.24c18.32,3.019 37.51,5.22 57.35,6.519c0.001,0 0.001,0 0.001,0l0.239,5.401c0.578,13.058 11.631,23.175 24.689,22.598l163.507,-7.229c13.058,-0.577 23.176,-11.631 22.599,-24.688l-0.471,-10.656c-0.085,-1.911 -0.399,-3.757 -0.906,-5.518c63.267,-17.25 113.213,-43.649 134.932,-74.628l84.62,0c10.16,0 18.39,-8.231 18.39,-18.391l0,-31.619c0,-10.158 -8.23,-18.389 -18.39,-18.389zm-420.1,77.19c-23.43,0 -42.49,-19.06 -42.49,-42.49s19.06,-42.49 42.49,-42.49c23.43,0 42.49,19.061 42.49,42.49s-19.06,42.49 -42.49,42.49zm108.8,0c-23.43,0 -42.5,-19.06 -42.5,-42.49s19.07,-42.49 42.5,-42.49c23.43,0 42.49,19.061 42.49,42.49s-19.06,42.49 -42.49,42.49zm108.79,0c-23.43,0 -42.49,-19.06 -42.49,-42.49s19.06,-42.49 42.49,-42.49c23.43,0 42.49,19.061 42.49,42.49s-19.06,42.49 -42.49,42.49z"/>
  <path id="svg_6" fill="#ededed" d="m769.825,442.907687c0,3.01 2.84,5.22 5.75,4.47l20.61,-5.269c4.76,-1.21 8.4,-5.04 9.38,-9.85l14.88,-73.2l-50.62,0l0,83.849z"/>
  <path id="svg_7" fill="#ededed" d="m796.185,174.937687l-20.61,-5.27c-2.91,-0.739 -5.75,1.46 -5.75,4.471l0,82.52l50.34,0l-14.6,-71.87c-0.98,-4.811 -4.62,-8.631 -9.38,-9.851z"/>
  <path id="svg_8" fill="#ededed" d="m527.745,139.468687l0,-46.45c0,-20.9 -14.12,-39.18 -34.34,-44.46l-10.55,-2.758l0,-13.275c0,-7.732 -6.268,-14 -14,-14l-0.568,0c-7.732,0 -14,6.268 -14,14l0,5.807l-1.542,-0.403c-8.01,-2.09 -16.21,2.71 -18.3,10.72c-2.1,8.02 2.7,16.22 10.72,18.309l9.122,2.383l0,11.851c0,7.732 6.268,14 14,14l0.568,0c7.732,0 14,-6.268 14,-14l0,-4.389l2.97,0.775c7.02,1.84 11.92,8.181 11.92,15.44l0,45.12l30,1.33z"/>
  <path id="svg_9" fill="#ededed" d="m310.689,177.533687l-5.667,0c-8.929,0 -16.167,7.238 -16.167,16.167l0,228.314c0,8.929 7.238,16.167 16.167,16.167l5.667,0c8.929,0 16.167,-7.238 16.167,-16.167l0,-228.314c-0.001,-8.929 -7.239,-16.167 -16.167,-16.167z"/>
 </g>
</svg>