<?xml version="1.0" ?><svg id="Icons" viewBox="0 0 48 48" xmlns="http://www.w3.org/2000/svg"><defs><style>.cls-1{fill:#ffe500;}.cls-2{fill:#ebcb00;}.cls-3{fill:#fff48c;}.cls-4{fill:none;}.cls-4,.cls-7,.cls-8{stroke:#45413c;stroke-linecap:round;stroke-linejoin:round;}.cls-5{fill:#45413c;opacity:0.15;}.cls-6{fill:#ffaa54;}.cls-7{fill:#ffb0ca;}.cls-8{fill:#fff;}</style></defs><title/><g data-name="&lt;Group&gt;" id="_Group_"><circle class="cls-1" cx="24" cy="21.5" data-name="&lt;Ellipse&gt;" id="_Ellipse_" r="20"/><path class="cls-2" d="M24,1.5a20,20,0,1,0,20,20A20,20,0,0,0,24,1.5Zm0,37A18.25,18.25,0,1,1,42.25,20.25,18.25,18.25,0,0,1,24,38.5Z" data-name="&lt;Compound Path&gt;" id="_Compound_Path_"/><ellipse class="cls-3" cx="24" cy="5.5" data-name="&lt;Ellipse&gt;" id="_Ellipse_2" rx="6" ry="1.5"/><circle class="cls-4" cx="24" cy="21.5" data-name="&lt;Ellipse&gt;" id="_Ellipse_3" r="20"/><ellipse class="cls-5" cx="24" cy="45.5" data-name="&lt;Ellipse&gt;" id="_Ellipse_4" rx="16" ry="1.5"/><path class="cls-4" d="M34.75,16.16A11.65,11.65,0,0,1,28.5,13" data-name="&lt;Path&gt;" id="_Path_"/><path class="cls-4" d="M13.25,16.16A11.65,11.65,0,0,0,19.5,13" data-name="&lt;Path&gt;" id="_Path_2"/><path class="cls-6" d="M38.5,26.5c0,.83-1.12,1.5-2.5,1.5s-2.5-.67-2.5-1.5S34.62,25,36,25,38.5,25.67,38.5,26.5Z" data-name="&lt;Path&gt;" id="_Path_3"/><path class="cls-6" d="M9.5,26.5c0,.83,1.12,1.5,2.5,1.5s2.5-.67,2.5-1.5S13.38,25,12,25,9.5,25.67,9.5,26.5Z" data-name="&lt;Path&gt;" id="_Path_4"/><path class="cls-4" d="M38,20.5a1.75,1.75,0,0,1-3.5,0" data-name="&lt;Path&gt;" id="_Path_5"/><path class="cls-4" d="M13.5,20.5a1.75,1.75,0,0,1-3.5,0" data-name="&lt;Path&gt;" id="_Path_6"/><g data-name="&lt;Group&gt;" id="_Group_2"><g data-name="&lt;Group&gt;" id="_Group_3"><g data-name="&lt;Group&gt;" id="_Group_4"><path class="cls-7" d="M31.79,35.5a1.21,1.21,0,0,0,.92-.42,1.24,1.24,0,0,0,.28-1,9.12,9.12,0,0,0-18,0,1.24,1.24,0,0,0,.28,1,1.21,1.21,0,0,0,.92.42A30.92,30.92,0,0,1,31.79,35.5Z" data-name="&lt;Path&gt;" id="_Path_7"/></g></g><path class="cls-8" d="M24,26.5A9.11,9.11,0,0,0,17.7,29H30.3A9.11,9.11,0,0,0,24,26.5Z" data-name="&lt;Path&gt;" id="_Path_8"/></g></g></svg>